<svg xmlns="http://www.w3.org/2000/svg" width="200" height="200" viewBox="0 0 200 200">
  <rect width="200" height="200" fill="white"/>
  <!-- QR Code placeholder - simplified pattern -->
  <g fill="#0D1117">
    <!-- Top-left finder -->
    <rect x="10" y="10" width="50" height="50"/>
    <rect x="15" y="15" width="40" height="40" fill="white"/>
    <rect x="20" y="20" width="30" height="30"/>
    <!-- Top-right finder -->
    <rect x="140" y="10" width="50" height="50"/>
    <rect x="145" y="15" width="40" height="40" fill="white"/>
    <rect x="150" y="20" width="30" height="30"/>
    <!-- Bottom-left finder -->
    <rect x="10" y="140" width="50" height="50"/>
    <rect x="15" y="145" width="40" height="40" fill="white"/>
    <rect x="20" y="150" width="30" height="30"/>
    <!-- Data pattern -->
    <rect x="70" y="10" width="10" height="10"/>
    <rect x="90" y="10" width="10" height="10"/>
    <rect x="110" y="10" width="10" height="10"/>
    <rect x="70" y="30" width="10" height="10"/>
    <rect x="100" y="30" width="10" height="10"/>
    <rect x="120" y="30" width="10" height="10"/>
    <rect x="80" y="50" width="10" height="10"/>
    <rect x="100" y="50" width="10" height="10"/>
    <rect x="130" y="50" width="10" height="10"/>
    <rect x="10" y="70" width="10" height="10"/>
    <rect x="30" y="70" width="10" height="10"/>
    <rect x="50" y="70" width="10" height="10"/>
    <rect x="70" y="70" width="10" height="10"/>
    <rect x="90" y="70" width="10" height="10"/>
    <rect x="110" y="70" width="10" height="10"/>
    <rect x="130" y="70" width="10" height="10"/>
    <rect x="150" y="70" width="10" height="10"/>
    <rect x="170" y="70" width="10" height="10"/>
    <rect x="10" y="90" width="10" height="10"/>
    <rect x="40" y="90" width="10" height="10"/>
    <rect x="70" y="90" width="10" height="10"/>
    <rect x="100" y="90" width="10" height="10"/>
    <rect x="140" y="90" width="10" height="10"/>
    <rect x="170" y="90" width="10" height="10"/>
    <rect x="20" y="110" width="10" height="10"/>
    <rect x="50" y="110" width="10" height="10"/>
    <rect x="80" y="110" width="10" height="10"/>
    <rect x="110" y="110" width="10" height="10"/>
    <rect x="130" y="110" width="10" height="10"/>
    <rect x="160" y="110" width="10" height="10"/>
    <rect x="10" y="130" width="10" height="10"/>
    <rect x="40" y="130" width="10" height="10"/>
    <rect x="70" y="130" width="10" height="10"/>
    <rect x="90" y="130" width="10" height="10"/>
    <rect x="120" y="130" width="10" height="10"/>
    <rect x="150" y="130" width="10" height="10"/>
    <rect x="180" y="130" width="10" height="10"/>
    <rect x="70" y="150" width="10" height="10"/>
    <rect x="100" y="150" width="10" height="10"/>
    <rect x="140" y="150" width="10" height="10"/>
    <rect x="170" y="150" width="10" height="10"/>
    <rect x="80" y="170" width="10" height="10"/>
    <rect x="110" y="170" width="10" height="10"/>
    <rect x="130" y="170" width="10" height="10"/>
    <rect x="160" y="170" width="10" height="10"/>
    <rect x="80" y="180" width="10" height="10"/>
    <rect x="120" y="180" width="10" height="10"/>
    <rect x="150" y="180" width="10" height="10"/>
  </g>
  <text x="100" y="198" text-anchor="middle" font-family="sans-serif" font-size="7" fill="#8B949E">Escaneá para ver la carta</text>
</svg>